<?xml version="1.0" encoding="us-ascii" standalone="no"?><svg xmlns="http://www.w3.org/2000/svg" xmlns:xlink="http://www.w3.org/1999/xlink" contentStyleType="text/css" height="387px" preserveAspectRatio="none" style="width:585px;height:387px;background:#FFFFFF;" version="1.1" viewBox="0 0 585 387" width="585px" zoomAndPan="magnify"><defs/><g><rect fill="#FFFFFF" height="158.536" style="stroke:#181818;stroke-width:1.0;" width="10" x="528.5" y="183.4281"/><rect fill="none" height="136.536" style="stroke:#000000;stroke-width:1.5;" width="348.5" x="229.5" y="198.4281"/><line style="stroke:#181818;stroke-width:0.5;stroke-dasharray:5.0,5.0;" x1="36" x2="36" y1="36.2969" y2="351.9641"/><line style="stroke:#181818;stroke-width:0.5;stroke-dasharray:5.0,5.0;" x1="149.5" x2="149.5" y1="36.2969" y2="351.9641"/><line style="stroke:#181818;stroke-width:0.5;stroke-dasharray:5.0,5.0;" x1="285.5" x2="285.5" y1="36.2969" y2="351.9641"/><line style="stroke:#181818;stroke-width:0.5;stroke-dasharray:5.0,5.0;" x1="533" x2="533" y1="36.2969" y2="351.9641"/><rect fill="#E2E2F0" height="30.2969" rx="2.5" ry="2.5" style="stroke:#181818;stroke-width:0.5;" width="63" x="5" y="5"/><text fill="#000000" font-family="sans-serif" font-size="14" lengthAdjust="spacing" textLength="49" x="12" y="24.9951">Livreur</text><rect fill="#E2E2F0" height="30.2969" rx="2.5" ry="2.5" style="stroke:#181818;stroke-width:0.5;" width="63" x="5" y="350.9641"/><text fill="#000000" font-family="sans-serif" font-size="14" lengthAdjust="spacing" textLength="49" x="12" y="370.9592">Livreur</text><rect fill="#E2E2F0" height="30.2969" rx="2.5" ry="2.5" style="stroke:#181818;stroke-width:0.5;" width="80" x="109.5" y="5"/><text fill="#000000" font-family="sans-serif" font-size="14" lengthAdjust="spacing" textLength="66" x="116.5" y="24.9951">Entrepot</text><rect fill="#E2E2F0" height="30.2969" rx="2.5" ry="2.5" style="stroke:#181818;stroke-width:0.5;" width="80" x="109.5" y="350.9641"/><text fill="#000000" font-family="sans-serif" font-size="14" lengthAdjust="spacing" textLength="66" x="116.5" y="370.9592">Entrepot</text><rect fill="#E2E2F0" height="30.2969" rx="2.5" ry="2.5" style="stroke:#181818;stroke-width:0.5;" width="92" x="239.5" y="5"/><text fill="#000000" font-family="sans-serif" font-size="14" lengthAdjust="spacing" textLength="78" x="246.5" y="24.9951">Logisticien</text><rect fill="#E2E2F0" height="30.2969" rx="2.5" ry="2.5" style="stroke:#181818;stroke-width:0.5;" width="92" x="239.5" y="350.9641"/><text fill="#000000" font-family="sans-serif" font-size="14" lengthAdjust="spacing" textLength="78" x="246.5" y="370.9592">Logisticien</text><rect fill="#E2E2F0" height="30.2969" rx="2.5" ry="2.5" style="stroke:#181818;stroke-width:0.5;" width="69" x="499" y="5"/><text fill="#000000" font-family="sans-serif" font-size="14" lengthAdjust="spacing" textLength="55" x="506" y="24.9951">Serveur</text><rect fill="#E2E2F0" height="30.2969" rx="2.5" ry="2.5" style="stroke:#181818;stroke-width:0.5;" width="69" x="499" y="350.9641"/><text fill="#000000" font-family="sans-serif" font-size="14" lengthAdjust="spacing" textLength="55" x="506" y="370.9592">Serveur</text><rect fill="#FFFFFF" height="158.536" style="stroke:#181818;stroke-width:1.0;" width="10" x="528.5" y="183.4281"/><polygon fill="#181818" points="137.5,63.4297,147.5,67.4297,137.5,71.4297,141.5,67.4297" style="stroke:#181818;stroke-width:1.0;"/><line style="stroke:#181818;stroke-width:1.0;stroke-dasharray:2.0,2.0;" x1="36.5" x2="143.5" y1="67.4297" y2="67.4297"/><text fill="#000000" font-family="sans-serif" font-size="13" lengthAdjust="spacing" textLength="89" x="43.5" y="62.3638">Livraison colis</text><polygon fill="#181818" points="273.5,92.5625,283.5,96.5625,273.5,100.5625,277.5,96.5625" style="stroke:#181818;stroke-width:1.0;"/><line style="stroke:#181818;stroke-width:1.0;stroke-dasharray:2.0,2.0;" x1="149.5" x2="279.5" y1="96.5625" y2="96.5625"/><text fill="#000000" font-family="sans-serif" font-size="13" lengthAdjust="spacing" textLength="112" x="156.5" y="91.4966">R&#233;ceptionne colis</text><line style="stroke:#181818;stroke-width:1.0;stroke-dasharray:2.0,2.0;" x1="285.5" x2="327.5" y1="125.6953" y2="125.6953"/><line style="stroke:#181818;stroke-width:1.0;stroke-dasharray:2.0,2.0;" x1="327.5" x2="327.5" y1="125.6953" y2="138.6953"/><line style="stroke:#181818;stroke-width:1.0;stroke-dasharray:2.0,2.0;" x1="286.5" x2="327.5" y1="138.6953" y2="138.6953"/><polygon fill="#181818" points="296.5,134.6953,286.5,138.6953,296.5,142.6953,292.5,138.6953" style="stroke:#181818;stroke-width:1.0;"/><text fill="#000000" font-family="sans-serif" font-size="13" lengthAdjust="spacing" textLength="73" x="292.5" y="120.6294">Scan t-shirt</text><polygon fill="#181818" points="516.5,179.4281,526.5,183.4281,516.5,187.4281,520.5,183.4281" style="stroke:#181818;stroke-width:1.0;"/><line style="stroke:#181818;stroke-width:1.0;stroke-dasharray:2.0,2.0;" x1="285.5" x2="522.5" y1="183.4281" y2="183.4281"/><text fill="#000000" font-family="sans-serif" font-size="13" lengthAdjust="spacing" textLength="54" x="292.5" y="163.2294">Requ&#234;te</text><text fill="#000000" font-family="monospace" font-size="13" lengthAdjust="spacing" textLength="32" x="350.5" y="162.7333">POST</text><text fill="#000000" font-family="sans-serif" font-size="13" lengthAdjust="spacing" textLength="20" x="386.5" y="163.2294">sur</text><text fill="#000000" font-family="monospace" font-size="13" lengthAdjust="spacing" textLength="64" x="410.5" y="162.7333">/capture</text><text fill="#000000" font-family="sans-serif" font-size="13" lengthAdjust="spacing" textLength="224" x="292.5" y="178.3622">Avec corps: message EPCIS (JSON)</text><path d="M229.5,198.4281 L295.5,198.4281 L295.5,205.561 L285.5,215.561 L229.5,215.561 L229.5,198.4281 " fill="#EEEEEE" style="stroke:#000000;stroke-width:1.5;"/><rect fill="none" height="136.536" style="stroke:#000000;stroke-width:1.5;" width="348.5" x="229.5" y="198.4281"/><text fill="#000000" font-family="sans-serif" font-size="13" font-weight="bold" lengthAdjust="spacing" textLength="21" x="244.5" y="211.495">alt</text><text fill="#000000" font-family="sans-serif" font-size="11" font-weight="bold" lengthAdjust="spacing" textLength="121" x="310.5" y="210.6386">[Message correct]</text><polygon fill="#181818" points="296.5,248.2938,286.5,252.2938,296.5,256.2938,292.5,252.2938" style="stroke:#181818;stroke-width:1.0;"/><line style="stroke:#181818;stroke-width:1.0;stroke-dasharray:2.0,2.0;" x1="290.5" x2="527.5" y1="252.2938" y2="252.2938"/><text fill="#000000" font-family="sans-serif" font-size="13" lengthAdjust="spacing" textLength="114" x="302.5" y="231.6278">R&#233;ponse "succ&#232;s"</text><text fill="#000000" font-family="sans-serif" font-size="13" lengthAdjust="spacing" textLength="70" x="302.5" y="247.2279">Code HTTP</text><text fill="#000000" font-family="monospace" font-size="13" lengthAdjust="spacing" textLength="24" x="376.5" y="246.7318">200</text><line style="stroke:#000000;stroke-width:1.0;stroke-dasharray:2.0,2.0;" x1="229.5" x2="578" y1="261.2938" y2="261.2938"/><text fill="#000000" font-family="sans-serif" font-size="11" font-weight="bold" lengthAdjust="spacing" textLength="133" x="234.5" y="271.5042">[Message incorrect]</text><polygon fill="#181818" points="296.5,322.9641,286.5,326.9641,296.5,330.9641,292.5,326.9641" style="stroke:#181818;stroke-width:1.0;"/><line style="stroke:#181818;stroke-width:1.0;stroke-dasharray:2.0,2.0;" x1="290.5" x2="527.5" y1="326.9641" y2="326.9641"/><text fill="#000000" font-family="sans-serif" font-size="13" lengthAdjust="spacing" textLength="109" x="302.5" y="291.1654">R&#233;ponse "erreur"</text><text fill="#000000" font-family="sans-serif" font-size="13" lengthAdjust="spacing" textLength="159" x="302.5" y="306.2982">Corps: message d'erreur</text><text fill="#000000" font-family="sans-serif" font-size="13" lengthAdjust="spacing" textLength="70" x="302.5" y="321.8982">Code HTTP</text><text fill="#000000" font-family="monospace" font-size="13" lengthAdjust="spacing" textLength="24" x="376.5" y="321.4021">400</text><!--SRC=[ZP71JiCm38RlUGeh5-1GCI5EEo2XQH93XLMaHovHQer8NH9Yjyy4l4PV37VhqCOuaAFzvVzikVHznYv3KTp1Cd3651dcK4hPUee1N6mzgP_Mo9LnuuczynW4VHa-7IRsCGISQ7LCdFympWRWWjvyvdFMOEx7YIGPtxlXYn6qhjQcrXf8wbfVEvkuowZrQtlVenDhJZI7BHBP3SAoMgmCN3wQzVELKhPbU9ew0cPqh42UTUnxA-cJS5SyoFzSCyL0CWnrpWqV9F95R10UwhgIeMvcCwqLja8SR3uS-_uJZNaynYxvPAFcOjyvLTxkbQ5Hgi7Vwtm3]--></g></svg>